<svg width="102" height="64" viewBox="0 0 102 64" fill="none" xmlns="http://www.w3.org/2000/svg">
<path d="M87.8687 30.2368L88.0751 28.2743H98.0745L98.4873 24H84.3527L80.1332 27.5219L79.4976 33.7829H89.4741L89.2734 35.7486H79.2913L78.8556 40H93.0212L97.2023 36.5104L97.8681 30.2368H87.8687Z" fill="white"/>
<path fill-rule="evenodd" clip-rule="evenodd" d="M59.0383 40L60.6437 24H74.2845L78.4802 27.52L77.647 35.7472L67.3708 35.7488L66.9454 40H59.0383ZM70.0599 28.2744H68.1151L67.5683 33.784H69.4996L70.0599 28.2744Z" fill="white"/>
<path d="M40.3072 24H59.0446L57.4392 40H49.0451L49.4808 35.7257H47.5312L47.1026 40H38.7018L40.3072 24ZM49.6584 33.784C49.7043 33.3116 49.9397 31.0629 49.9854 30.6057C50.0161 30.2095 50.0543 29.7981 50.1002 29.3714C50.146 28.9448 50.1842 28.579 50.2148 28.2743H48.2794L47.7255 33.784H49.6584Z" fill="white"/>
<path d="M29.6106 24H21.5835L20.322 36.456L24.5065 40H37.1102L37.523 35.7257H28.441L29.6106 24Z" fill="white"/>
<path d="M19.2878 30.9257L19.9759 24H5.50253L1.24653 27.524L0 40H14.5189L18.7556 36.4617L19.0814 32.8914H10.7104L10.4122 35.7257H8.46278L9.19668 28.2743H11.1463L10.8798 30.9257H19.2878Z" fill="white"/>
</svg>
